<?xml version="1.0" encoding="utf-8"?>
<!-- Generator: Adobe Illustrator 27.5.0, SVG Export Plug-In . SVG Version: 6.00 Build 0)  -->
<svg version="1.1" xmlns="http://www.w3.org/2000/svg" xmlns:xlink="http://www.w3.org/1999/xlink" x="0px" y="0px"
	 viewBox="0 0 144 144" style="enable-background:new 0 0 144 144;" xml:space="preserve">
<style type="text/css">
	.st0{fill:url(#SVGID_1_);}
	.st1{fill:#FFFFFF;}
	.st2{fill:none;}
</style>
<g id="图层_4">
	
		<linearGradient id="SVGID_1_" gradientUnits="userSpaceOnUse" x1="0" y1="72" x2="144" y2="72" gradientTransform="matrix(6.123234e-17 -1 1 6.123234e-17 0 144)">
		<stop  offset="0" style="stop-color:#0092E9"/>
		<stop  offset="7.096986e-02" style="stop-color:#018FE3"/>
		<stop  offset="0.1621" style="stop-color:#0485D3"/>
		<stop  offset="0.2637" style="stop-color:#0876B9"/>
		<stop  offset="0.3503" style="stop-color:#0D669D"/>
		<stop  offset="0.9691" style="stop-color:#000E28"/>
	</linearGradient>
	<rect class="st0" width="144" height="144"/>
</g>
<g id="_图层_1">
	<path class="st1" d="M124.5,52.4c-2.8-16.4-20.6-25.9-35.6-18.7c-9,4.3-14.1,11.6-14.7,21.8c0,0.8-0.4,1.6-0.8,2.2
		c-4.9,7.2-9.8,14.3-14.7,21.4c-0.3,0.5-1.1,0.9-1.7,0.9c-3.4,0.1-6.5,1-9.5,2.6c-0.5,0.3-1.3,0.3-1.8,0.1c-10-4-20-8.1-30-12.1
		C10.4,68.4,5.2,66.2,0,64c0,7.7,0,15.3,0,23c1.6,0.5,3.2,1,4.7,1.7c10.3,4.2,20.6,8.6,30.9,12.8c2,0.8,3.2,1.8,3.9,3.9
		c3,8.7,11.9,13.8,20.9,12.1c8.3-1.6,15.6-8.6,15.6-18.3c0-1,0.3-1.5,1.1-2.1C83,93,88.9,88.9,94.7,84.6c2.5-1.8,5-2.9,8.1-3.2
		C117,79.8,126.8,66.4,124.5,52.4z M61.3,112.7c-7.4,2.2-14.4-1.6-16.7-7.1h0c2.7,1,5.4,2.1,8,3.1c3.2,1.2,6.2,1,9.1-0.8
		c3.4-2.1,5.3-5.2,5.1-9.3c-0.2-4.4-2.6-7.5-6.6-9.3c-2.1-0.9-4.2-1.8-6.3-2.7c-0.5-0.2-0.9-0.6-1.5-0.9c7.3-2.1,15.6,1,18.3,9.3
		C73,102.4,68.7,110.5,61.3,112.7z M99.3,73.5c-8.9-0.1-16.9-8.2-16.6-17c0.2-8.7,6.9-16.5,17-16.6c8.9,0,16.7,7.8,16.6,16.3
		C116.2,66.2,108.9,73.6,99.3,73.5z"/>
	<path class="st2" d="M52.4,85.6c0.6,0.4,1.1,0.7,1.5,0.9c2.1,0.9,4.2,1.8,6.3,2.7c4,1.8,6.4,4.9,6.6,9.3c0.2,4-1.7,7.2-5.1,9.3
		c-2.9,1.8-6,2-9.1,0.8c-2.7-1-5.3-2-8-3.1h0c2.3,5.5,9.3,9.3,16.7,7.1c7.4-2.2,11.7-10.3,9.3-17.8C68,86.6,59.7,83.5,52.4,85.6z"/>
	<path class="st1" d="M99.6,44c-7.1,0-12.7,5.6-12.8,12.6c0,6.8,5.7,12.6,12.6,12.6l0,0c6.9,0,12.7-5.7,12.8-12.5
		C112.2,49.7,106.5,44,99.6,44z"/>
	<path class="st2" d="M99.6,44c-7.1,0-12.7,5.6-12.8,12.6c0,6.8,5.7,12.6,12.6,12.6l0,0c6.9,0,12.7-5.7,12.8-12.5
		C112.2,49.7,106.5,44,99.6,44z"/>
</g>
</svg>
