<?xml version="1.0" encoding="utf-8"?>
<!-- Generator: Adobe Illustrator 27.5.0, SVG Export Plug-In . SVG Version: 6.00 Build 0)  -->
<svg version="1.1" id="_图层_1" xmlns="http://www.w3.org/2000/svg" xmlns:xlink="http://www.w3.org/1999/xlink" x="0px" y="0px"
	 viewBox="0 0 144 144" style="enable-background:new 0 0 144 144;" xml:space="preserve">
<style type="text/css">
	.st0{fill:none;}
	.st1{fill:#FFFFFF;}
</style>
<path class="st0" d="M56.1,81.6c0.4,0.2,0.7,0.5,1,0.6c1.3,0.6,2.7,1.1,4,1.7c2.6,1.1,4.1,3.1,4.2,5.9c0.1,2.6-1.1,4.5-3.2,5.9
	c-1.8,1.1-3.8,1.3-5.8,0.5c-1.7-0.6-3.4-1.3-5.1-2l0,0c1.5,3.5,5.9,5.9,10.6,4.5s7.4-6.6,5.9-11.3C66,82.2,60.7,80.2,56.1,81.6z"/>
<path class="st1" d="M86,55.1c-4.5,0-8.1,3.6-8.1,8c0,4.3,3.6,8,8,8l0,0c4.4,0,8.1-3.6,8.1-8S90.4,55.1,86,55.1z"/>
<path class="st0" d="M86,55.1c-4.5,0-8.1,3.6-8.1,8c0,4.3,3.6,8,8,8l0,0c4.4,0,8.1-3.6,8.1-8S90.4,55.1,86,55.1z"/>
<path class="st1" d="M46.7,92.1c1.2,0.5,2.1,1.1,2.6,2.6c2,5.7,7.7,9,13.7,7.9c5.4-1,10.2-5.7,10.2-11.9c0-0.6,0.2-1,0.7-1.3
	c3.9-2.7,7.7-5.3,11.5-8.1c1.6-1.1,3.3-1.9,5.3-2.1c9.3-1,15.6-9.8,14.1-18.9c-1.9-10.9-13.5-17.1-23.3-12.3
	c-6,2.9-9.3,7.6-9.6,14.2c0,0.5-0.2,1-0.5,1.4c-3.2,4.6-6.4,9.4-9.7,14c-0.2,0.3-0.7,0.6-1.1,0.6c-2.3,0.1-4.3,0.6-6.2,1.7
	c-0.3,0.2-0.8,0.2-1.2,0.1L0,58.3v15 M63.4,99.5c-4.8,1.4-9.4-1-10.9-4.6c1.7,0.7,3.5,1.3,5.2,2.1c2.1,0.7,4.1,0.6,6-0.5
	C66,95,67.1,93,67,90.3c-0.1-3-1.6-5-4.3-6.2c-1.3-0.6-2.8-1.2-4.1-1.7c-0.3-0.1-0.6-0.4-1-0.6c4.7-1.3,10.2,0.6,11.9,6.1
	C71.1,92.7,68.3,98,63.4,99.5z M88.2,73.8c-5.8-0.1-11-5.3-10.8-11.1c0.2-5.7,4.5-10.8,11.1-10.8c5.9,0,10.9,5,10.8,10.7
	C99.2,69.1,94.5,73.9,88.2,73.8z"/>
<path class="st1" d="M38.3,88.8l-15.6-6.3C23.5,82.7,31.5,86,38.3,88.8z"/>
</svg>
