<?xml version="1.0" encoding="utf-8"?>
<!-- Generator: Adobe Illustrator 27.5.0, SVG Export Plug-In . SVG Version: 6.00 Build 0)  -->
<svg version="1.1" id="_图层_1" xmlns="http://www.w3.org/2000/svg" xmlns:xlink="http://www.w3.org/1999/xlink" x="0px" y="0px"
	 viewBox="0 0 144 144" style="enable-background:new 0 0 144 144;" xml:space="preserve">
<style type="text/css">
	.st0{fill:none;}
	.st1{fill:#FFFFFF;}
</style>
<path class="st0" d="M56.1,81.6c0.4,0.2,0.7,0.5,1,0.6c1.3,0.6,2.7,1.1,4,1.7c2.6,1.1,4.1,3.1,4.2,5.9c0.1,2.6-1.1,4.5-3.2,5.9
	c-1.8,1.1-3.8,1.3-5.8,0.5c-1.7-0.6-3.4-1.3-5.1-2h0c1.5,3.5,5.9,5.9,10.6,4.5c4.7-1.4,7.4-6.6,5.9-11.3
	C66,82.2,60.7,80.2,56.1,81.6z"/>
<path class="st1" d="M86,55.1c-4.5,0-8.1,3.6-8.1,8c0,4.3,3.6,8,8,8l0,0c4.4,0,8.1-3.6,8.1-8C94,58.7,90.4,55.1,86,55.1z"/>
<path class="st0" d="M86,55.1c-4.5,0-8.1,3.6-8.1,8c0,4.3,3.6,8,8,8l0,0c4.4,0,8.1-3.6,8.1-8C94,58.7,90.4,55.1,86,55.1z"/>
<path class="st1" d="M45.4,91.6c1.2,0.5,2,1.1,2.5,2.5c1.9,5.5,7.5,8.8,13.3,7.7c5.3-1,9.9-5.5,9.9-11.6c0-0.6,0.2-1,0.7-1.3
	c3.8-2.6,7.5-5.2,11.2-7.9c1.6-1.1,3.2-1.8,5.2-2c9-1,15.2-9.5,13.7-18.4C100.1,50,88.8,44,79.2,48.6c-5.8,2.8-9,7.4-9.3,13.8
	c0,0.5-0.2,1-0.5,1.4c-3.1,4.5-6.2,9.1-9.4,13.6c-0.2,0.3-0.7,0.6-1.1,0.6c-2.2,0.1-4.2,0.6-6,1.7c-0.3,0.2-0.8,0.2-1.2,0.1L0,58.7
	v14.6 M61.7,98.8c-4.7,1.4-9.1-1-10.6-4.5c1.7,0.7,3.4,1.3,5.1,2c2,0.7,4,0.6,5.8-0.5c2.2-1.4,3.3-3.3,3.2-5.9
	C65.1,87,63.6,85,61,83.9c-1.3-0.6-2.7-1.2-4-1.7c-0.3-0.1-0.6-0.4-1-0.6c4.6-1.3,9.9,0.6,11.6,5.9C69.2,92.2,66.4,97.4,61.7,98.8z
	 M85.8,73.8c-5.6-0.1-10.7-5.2-10.5-10.8c0.2-5.5,4.4-10.5,10.8-10.5c5.7,0,10.6,4.9,10.5,10.4C96.5,69.2,91.9,73.9,85.8,73.8z"/>
<path class="st1" d="M38.3,88.8l-15.6-6.3C23.5,82.7,31.5,86,38.3,88.8z"/>
</svg>
