<?xml version="1.0" encoding="utf-8"?>
<!-- Generator: Adobe Illustrator 27.5.0, SVG Export Plug-In . SVG Version: 6.00 Build 0)  -->
<svg version="1.1" id="图层_1" xmlns="http://www.w3.org/2000/svg" xmlns:xlink="http://www.w3.org/1999/xlink" x="0px" y="0px"
	 viewBox="0 0 144 144" style="enable-background:new 0 0 144 144;" xml:space="preserve">
<style type="text/css">
	.st0{display:none;}
	.st1{display:inline;fill:url(#SVGID_1_);}
	.st2{fill:#FFFFFF;}
	.st3{fill:none;}
</style>
<g id="图层_4" class="st0">
	
		<linearGradient id="SVGID_1_" gradientUnits="userSpaceOnUse" x1="-1112" y1="538" x2="-968" y2="538" gradientTransform="matrix(6.123234e-17 -1 1 6.123234e-17 -466 -968)">
		<stop  offset="0" style="stop-color:#0092E9"/>
		<stop  offset="7.096986e-02" style="stop-color:#018FE3"/>
		<stop  offset="0.1621" style="stop-color:#0485D3"/>
		<stop  offset="0.2637" style="stop-color:#0876B9"/>
		<stop  offset="0.3503" style="stop-color:#0D669D"/>
		<stop  offset="0.9691" style="stop-color:#000E28"/>
	</linearGradient>
	<rect class="st1" width="144" height="144"/>
</g>
<g id="_图层_1">
	<path class="st2" d="M104.8,58.3c-2.1-12-15.1-19-26.1-13.7c-6.6,3.2-10.4,8.5-10.8,16c0,0.6-0.3,1.2-0.6,1.6
		c-3.6,5.3-7.2,10.5-10.8,15.7c-0.2,0.4-0.8,0.7-1.2,0.7c-2.5,0.1-4.8,0.7-7,1.9c-0.4,0.2-1,0.2-1.3,0.1c-7.3-2.9-14.7-5.9-22-8.9
		C21,70,0,61.4,0,61.4l0.1,16.4c0,0,15.6,6.6,16.7,7.1c7.6,3.1,15.1,6.3,22.7,9.4c1.5,0.6,2.3,1.3,2.9,2.9
		c2.2,6.4,8.7,10.1,15.3,8.9c6.1-1.2,11.5-6.3,11.5-13.4c0-0.7,0.2-1.1,0.8-1.5c4.3-3,8.7-6,12.9-9.2c1.8-1.3,3.7-2.1,5.9-2.3
		C99.2,78.4,106.4,68.5,104.8,58.3z M58.3,102.5c-5.4,1.6-10.6-1.2-12.3-5.2l0,0c2,0.7,4,1.5,5.9,2.3c2.3,0.9,4.6,0.7,6.7-0.6
		c2.5-1.5,3.9-3.8,3.7-6.8c-0.1-3.2-1.9-5.5-4.8-6.8c-1.5-0.7-3.1-1.3-4.6-2c-0.4-0.1-0.7-0.4-1.1-0.7c5.4-1.5,11.5,0.7,13.4,6.8
		C66.9,95,63.8,100.9,58.3,102.5z M86.2,73.8c-6.5-0.1-12.4-6-12.2-12.5c0.1-6.4,5.1-12.1,12.5-12.2c6.5,0,12.3,5.7,12.2,12
		C98.7,68.4,93.3,73.8,86.2,73.8z"/>
	<path class="st3" d="M51.8,82.6c0.4,0.3,0.8,0.5,1.1,0.7c1.5,0.7,3.1,1.3,4.6,2c2.9,1.3,4.7,3.6,4.8,6.8c0.1,2.9-1.2,5.3-3.7,6.8
		c-2.1,1.3-4.4,1.5-6.7,0.6c-2-0.7-3.9-1.5-5.9-2.3l0,0c1.7,4,6.8,6.8,12.3,5.2c5.4-1.6,8.6-7.6,6.8-13.1
		C63.3,83.4,57.2,81.1,51.8,82.6z"/>
	<path class="st2" d="M86.5,52.1c-5.2,0-9.3,4.1-9.4,9.3c0,5,4.2,9.3,9.3,9.3l0,0c5.1,0,9.3-4.2,9.4-9.2
		C95.7,56.3,91.5,52.1,86.5,52.1z"/>
	<path class="st3" d="M86.5,52.1c-5.2,0-9.3,4.1-9.4,9.3c0,5,4.2,9.3,9.3,9.3l0,0c5.1,0,9.3-4.2,9.4-9.2
		C95.7,56.3,91.5,52.1,86.5,52.1z"/>
</g>
</svg>
