<?xml version="1.0" encoding="utf-8"?>
<!-- Generator: Adobe Illustrator 27.5.0, SVG Export Plug-In . SVG Version: 6.00 Build 0)  -->
<svg version="1.1" xmlns="http://www.w3.org/2000/svg" xmlns:xlink="http://www.w3.org/1999/xlink" x="0px" y="0px"
	 viewBox="0 0 144 144" style="enable-background:new 0 0 144 144;" xml:space="preserve">
<style type="text/css">
	.st0{fill:#0188FB;}
	.st1{fill:#FFFFFF;}
	.st2{fill:none;}
</style>
<g id="图层_2">
	<rect class="st0" width="144" height="144"/>
</g>
<g id="图层_1">
	<g id="图层_1_00000177471224724005329190000003038994087210018985_">
		<g>
			<path vector-effect="non-scaling-stroke" class="st1" d="M84.9,99c0-0.3,0.3-0.5,0.5-0.5c8-0.1,13-5.4,13-13.4c0-9,0-18.1-0.1-27
				c0-5.8-3.9-10.9-9.4-12.2c-1-0.3-3.7-0.4-8.1-0.4c-7.4-0.1-14.9,0-22.4,0.1c-5.7,0.1-10.2,2.7-12.1,8.2c-0.5,1.5-0.7,3.9-0.7,7.2
				c0,7.4-0.1,14.9-0.1,22.4c-0.1,6.8,2.3,12.7,9.2,14.6c3.4,1,12-0.5,14.4,1.2c4.9,3.6,10,7.3,15.3,11.1c0.3,0.2,0.4,0.1,0.4-0.2
				C84.6,106.3,84.6,102.6,84.9,99"/>
			<path vector-effect="non-scaling-stroke" class="st2" d="M78.7,74.7l11.5-3.8c0.4-0.1,0.6-0.5,0.5-0.9c-0.6-1.8-1.2-3.5-1.6-5.3
				c-0.4-1.8-1.8-0.9-3-0.5c-3.2,1-6.4,2.1-9.6,3.2c-0.2,0.1-0.3-0.1-0.4-0.2c0-0.1,0-0.1,0-0.1l-0.1-12c0-0.4-0.3-0.7-0.7-0.7h-6.3
				c-0.4,0-0.6,0.3-0.6,0.6v11.9c0,0.3-0.2,0.4-0.4,0.4c-0.1,0-0.1,0-0.1,0l-11.1-3.6c-0.4-0.2-0.9,0.1-1.1,0.5l-2,6.1
				c-0.1,0.3,0.1,0.7,0.4,0.8l11.5,3.8c0.2,0.1,0.3,0.2,0.2,0.4c0,0.1,0,0.1-0.1,0.1l-7,9.8c-0.3,0.4-0.2,0.8,0.2,1.1l0,0l5,3.6
				c0.3,0.2,0.8,0.2,1-0.2l7-9.7c0.1-0.2,0.3-0.2,0.4-0.1c0.1,0,0.1,0.1,0.1,0.1l7.2,9.7c0.2,0.3,0.6,0.4,1,0.2l5-3.7
				c0.3-0.3,0.4-0.7,0.2-1.1l-7-9.8C78.5,75,78.5,74.8,78.7,74.7L78.7,74.7"/>
		</g>
		<path class="st0" d="M78.7,74.7c-0.2,0.1-0.2,0.2-0.2,0.3c0,0.1,0,0.1,0.1,0.1l7,9.8c0.3,0.3,0.2,0.8-0.2,1.1l-5,3.7
			c-0.3,0.2-0.7,0.2-1-0.2l-7.2-9.7c-0.1-0.2-0.3-0.2-0.4-0.1l-0.1,0.1l-7,9.7c-0.2,0.3-0.7,0.4-1,0.2l-5-3.6
			c-0.4-0.3-0.4-0.7-0.2-1.1l0,0l7-9.7c0.1-0.1,0.1-0.3-0.1-0.4c0,0-0.1-0.1-0.1-0.1L54,70.9c-0.3-0.1-0.5-0.5-0.4-0.8l2-6.1
			c0.2-0.4,0.6-0.6,1.1-0.5l11.1,3.6c0.2,0.1,0.5-0.1,0.5-0.3c0-0.1,0-0.1,0-0.1V54.9c0-0.4,0.3-0.6,0.6-0.6H75
			c0.4,0,0.7,0.3,0.7,0.7l0.1,12c0,0.2,0.2,0.3,0.3,0.3c0.1,0,0.1,0,0.1,0c3.2-1.1,6.3-2.2,9.6-3.2c1.1-0.4,2.5-1.3,3,0.5
			c0.4,1.8,1.1,3.5,1.6,5.3c0.1,0.4-0.1,0.8-0.5,0.9L78.7,74.7z"/>
	</g>
</g>
</svg>
