<?xml version="1.0" encoding="utf-8"?>
<!-- Generator: Adobe Illustrator 27.5.0, SVG Export Plug-In . SVG Version: 6.00 Build 0)  -->
<svg version="1.1" id="图层_1" xmlns="http://www.w3.org/2000/svg" xmlns:xlink="http://www.w3.org/1999/xlink" x="0px" y="0px"
	 viewBox="0 0 144 144" style="enable-background:new 0 0 144 144;" xml:space="preserve">
<style type="text/css">
	.st0{fill:#FFFFFF;}
</style>
<path class="st0" d="M98.5,58.1c0-5.8-3.9-10.9-9.4-12.2c-1-0.2-3.7-0.4-8.1-0.4c-7.5,0-15,0-22.4,0.1c-5.7,0.1-10.3,2.8-12.1,8.3
	c-0.5,1.5-0.8,3.9-0.8,7.2c0,7.5-0.1,14.9-0.1,22.4c-0.1,6.8,2.3,12.7,9.3,14.6c3.4,0.9,12.1-0.5,14.4,1.2c4.9,3.7,10,7.4,15.3,11.1
	c0.3,0.2,0.4,0.1,0.4-0.2c-0.2-3.7-0.2-7.4,0.1-11.1c0-0.3,0.2-0.5,0.5-0.5c8-0.1,13.1-5.4,13.1-13.4C98.5,76.2,98.5,67.1,98.5,58.1
	z M90.2,70.9l-11.5,3.8c0,0-0.1,0-0.1,0c-0.1,0.1-0.1,0.2-0.1,0.4l7,9.8c0.2,0.3,0.2,0.8-0.2,1.1l-5,3.7c-0.3,0.2-0.7,0.2-1-0.2
	l-7.1-9.7c0,0,0-0.1-0.1-0.1c-0.1-0.1-0.3-0.1-0.4,0.1l-7,9.7c-0.2,0.3-0.7,0.4-1,0.2L58.7,86c0,0,0,0,0,0c-0.4-0.3-0.4-0.8-0.2-1.1
	l7-9.7c0,0,0-0.1,0-0.1c0.1-0.2,0-0.3-0.2-0.4L53.9,71c-0.3-0.1-0.5-0.5-0.4-0.8l1.9-6.1c0.1-0.4,0.6-0.6,1-0.5l11.2,3.6
	c0,0,0.1,0,0.1,0c0.2,0,0.4-0.2,0.4-0.4V54.9c0-0.4,0.3-0.7,0.7-0.7h6.3c0.4,0,0.8,0.3,0.8,0.7L76,67c0,0,0,0.1,0,0.1
	c0.1,0.2,0.2,0.3,0.4,0.2c3.2-1.1,6.4-2.2,9.6-3.2c1.1-0.3,2.5-1.3,3,0.5c0.4,1.8,1.1,3.5,1.7,5.3C90.8,70.4,90.6,70.8,90.2,70.9z"
	/>
</svg>
